<svg fill="#25c24f" id="Capa_1" enable-background="new 0 0 48 48" height="64" viewBox="0 0 480 480" width="64" xmlns="http://www.w3.org/2000/svg"><path d="m351.996 32h-96c0-17.673-14.327-32-32-32s-32 14.327-32 32h-96c-17.665.019-31.981 14.335-32 32v32.193c-1.178-.114-2.366-.193-3.573-.193h-.57c-20.211.023-36.59 16.402-36.613 36.613v2.193c-.005 7.693 1.676 15.293 4.925 22.266-12.497 3.17-22.469 12.573-26.369 24.862-6.248 19.607 4.366 40.759 23.66 47.151 5.353 1.783 10.958 2.694 16.6 2.7 2.305-.005 4.607-.165 6.891-.476-1.115 13.007 4.56 25.668 15.011 33.491l.038.027v183.173c.02 17.665 14.335 31.98 32 32h256c17.665-.02 31.98-14.335 32-32v-384c-.019-17.665-14.335-31.981-32-32zm-200 32c.01-8.832 7.168-15.99 16-16h32c4.418 0 8-3.582 8-8v-8c0-8.837 7.163-16 16-16s16 7.163 16 16v8c0 4.418 3.582 8 8 8h32c8.832.01 15.99 7.168 16 16v16h-144zm152 32c4.418 0 8-3.582 8-8v-8h24v296h-48c-4.418 0-8 3.582-8 8v48h-168v-171.17c1.306-1.354 2.509-2.803 3.6-4.336 4.717-6.617 7.893-14.206 9.293-22.211 3.533 1.501 7.278 2.443 11.1 2.793v18.924c0 4.418 3.582 8 8 8h160.007c4.418 0 8-3.582 8-8v-128c0-4.418-3.582-8-8-8h-148.074c-3.544-6.914-9.183-12.532-16.111-16.05-8.606-4.42-18.625-5.207-27.815-2.184v-21.766h24v8c0 4.418 3.582 8 8 8zm32 307.313v28.687h-28.686zm-40 17.373v-28.686h28.686zm-222.515-168.744c-7.74-5.828-10.708-16.063-7.285-25.127l.649-1.306c12.432-6.625 21.759-17.874 25.968-31.317l.431-1.352 1.03.764c16.778 12.429 20.5 36.477 8.293 53.6-3.217 4.58-8.152 7.661-13.68 8.538-5.438.869-10.996-.502-15.406-3.8zm23.515-119.329h.042c0-.02 0-.041 0-.061 4.607-7.319 11.61-12.813 19.815-15.544 5.181-1.731 10.842-1.298 15.7 1.2 5.072 2.591 8.885 7.117 10.577 12.555 3.082 9.626-.862 20.108-9.525 25.316-13.892-2.134-28.059 1.402-39.319 9.815l-1.053.78-.427-1.342c-3.509-10.989-1.975-22.969 4.19-32.719zm63.111 3.387h15.889v16h-18.8c2.106-5.063 3.099-10.52 2.911-16zm-56.311 44.747-1.346-1 1.353-1c7.913-5.92 17.887-8.381 27.646-6.822 9.9 1.568 18.741 7.081 24.506 15.28 6.851 9.632 4.795 22.966-4.639 30.087-8.032 6.003-19.246 5.23-26.378-1.819-2.28-13.878-9.86-26.329-21.142-34.726zm48.2 54.207c2.117-.791 4.155-1.78 6.087-2.954h17.913v16h-24zm20.393-18.954c2.332-5.013 3.551-10.471 3.573-16h.034v16zm.117-32c-.98-2.131-2.157-4.166-3.516-6.078-2.62-3.675-5.69-7.008-9.137-9.922h16.143v16zm43.49-16v16h-24v-16zm-24-16v-16h24v16zm24 48v16h-24v-16zm0 32v16h-24v-16zm40-64v16h-24v-16zm-24-16v-16h24v16zm24 48v16h-24v-16zm0 32v16h-24v-16zm40-64v16h-24v-16zm-24-16v-16h24v16zm24 48v16h-24v-16zm0 32v16h-24v-16zm-216-168c.01-8.832 7.168-15.99 16-16h44.305c-2.824 4.859-4.31 10.38-4.305 16h-32c-4.418 0-8 3.582-8 8v38.277c-1.443 1.119-2.828 2.312-4.149 3.573-2.953-4.914-7.011-9.072-11.851-12.144zm-40.756 68.613c.013-11.379 9.234-20.6 20.613-20.613h.57c9.993.017 18.537 7.192 20.281 17.032-6.358 12.788-7.486 27.55-3.146 41.156l.5 1.581h-1.854c-20.405-.023-36.941-16.558-36.964-36.963zm19.428 79.135c-8.721 4.482-18.881 5.258-28.181 2.152-11.014-3.649-17.047-15.809-13.447-27.1 2.896-9.327 11.844-15.424 21.584-14.707 9.926 10.043 23.46 15.691 37.58 15.684h1.865l-.5 1.565c-3.028 9.708-9.842 17.785-18.901 22.406zm309.328 236.252c-.01 8.832-7.168 15.99-16 16h-256c-8.832-.01-15.99-7.168-16-16v-176.437c1.863.295 3.745.443 5.631.443 3.51.001 7.003-.504 10.369-1.5v169.494c0 4.418 3.582 8 8 8h240c4.418 0 8-3.582 8-8v-368c0-4.418-3.582-8-8-8h-32c.006-5.62-1.478-11.14-4.3-16h44.3c8.832.01 15.99 7.168 16 16z"/><path d="m135.996 280h16v16h-16z"/><path d="m167.996 280h144v16h-144z"/><path d="m135.996 312h16v16h-16z"/><path d="m167.996 312h144v16h-144z"/><path d="m135.996 344h16v16h-16z"/><path d="m167.996 344h144v16h-144z"/><path d="m135.996 376h16v16h-16z"/><path d="m167.996 376h96v16h-96z"/><path d="m455.996 232h-8v-8c0-13.255-10.745-24-24-24s-24 10.745-24 24v168c-.045 16.619 6.56 32.566 18.344 44.285 3.124 3.123 8.188 3.123 11.312 0 11.784-11.719 18.389-27.666 18.344-44.285v-144h8c4.416.005 7.995 3.584 8 8v56h16v-56c-.015-13.249-10.751-23.985-24-24zm-24 160c.025 9.32-2.763 18.431-8 26.141-5.237-7.71-8.025-16.821-8-26.141v-144h16zm0-160h-16v-8c0-4.418 3.582-8 8-8s8 3.582 8 8z"/></svg>