<svg fill="#25c24f" id="Capa_1" enable-background="new 0 0 480 480" height="64" viewBox="0 0 480 480" width="64" xmlns="http://www.w3.org/2000/svg"><path d="m243.27 425.938c-.886 3.565-4.089 6.066-7.762 6.062h-203.508v16h64v24c0 4.418 3.582 8 8 8h336c4.418 0 8-3.582 8-8v-432c-.026-22.081-17.919-39.974-40-40h-272c-22.081.026-39.974 17.919-40 40v200h-64v16h231.023c3.671-.005 6.873 2.493 7.762 6.055l8 32c1.074 4.286-1.529 8.631-5.815 9.705-.637.16-1.291.24-1.947.24h-51.507c-4.418.001-7.999 3.583-7.999 8.001.001 3.812 2.69 7.094 6.428 7.843l15.2 3.039c6.348 1.288 11.055 6.655 11.503 13.117h-37.82l-37.656-37.656c-1.5-1.5-3.534-2.344-5.656-2.344h-131.516v16h64v64h-64v16h104c2.122 0 4.156-.844 5.656-2.344l37.656-37.656h37.821c-.449 6.465-5.16 11.833-11.512 13.117l-15.191 3.039c-4.332.868-7.14 5.084-6.272 9.416.749 3.737 4.03 6.427 7.842 6.428h51.508c4.422.003 8.003 3.59 8 8.012 0 .652-.081 1.301-.238 1.933zm-131.27-113.938h16v64h-16zm64 24c-2.122 0-4.156.844-5.656 2.344l-26.344 26.344v-52.688h16.2l22.011 22.011.333 1.989zm-32 128v-16h24.983l-6.4 16zm-32-16h16v16h-16zm67.816 16 6.4-16h49.29c10.147-.01 19.183-6.424 22.54-16h4.991c27.029-.029 48.933-21.932 48.963-48.961v-46.078c-.022-8.746 3.455-17.137 9.656-23.305 9.214-9.16 14.379-21.625 14.344-34.617v-22.078c-.03-27.028-21.933-48.931-48.961-48.961h-63.039c-17.665.019-31.981 14.335-32 32h-48v-24c.019-17.665 14.335-31.981 32-32h192c17.604-.069 31.931 14.147 32 31.752v.248 248h-18.585l-25-62.445c-2.685-6.838-3.473-14.275-2.281-21.524l21.762-130.719-15.782-2.624-21.77 130.726c-1.664 10.118-.561 20.497 3.191 30.039l22.645 56.547zm97.84-365.656-6.976-6.977c-2.848-2.851-4.3-6.492-3.887-9.75.679-5.472 5.314-9.589 10.828-9.617 1.768-.001 3.486-.586 4.887-1.664 8.48-6.581 13.457-16.702 13.492-27.436v-19.532c10.012 6.091 17.805 15.391 20.973 25.554l5.359 18c.246.826.623 1.606 1.117 2.312l16.672 23.758-7.7 3.852c-2.71 1.356-4.421 4.126-4.421 7.156v24c-.004 4.416-3.584 7.996-8 8h-24c-4.418 0-8 3.582-8 8v24h-29.332c9.859-12.769 21.332-34.015 21.332-64 0-2.122-.843-4.156-2.344-5.656zm154.344-58.344v424h-16v-248c.066-26.443-21.316-47.934-47.76-48-.08 0-.16 0-.24 0h-64v-16h16c13.249-.015 23.985-10.751 24-24v-19.055l11.578-5.789c3.953-1.98 5.553-6.79 3.573-10.744-.175-.35-.376-.686-.6-1.006l-21.251-30.297-5.02-16.851c-3.334-10.7-10.351-20.551-19.452-28.258h95.172c13.249.015 23.985 10.751 24 24zm-160.793-24c2.957.009 5.904.331 8.793.961v25.939c-.017 4.996-2.024 9.779-5.578 13.29-12.267 1.516-21.942 11.16-23.5 23.421-1.031 8.125 2.129 16.75 8.449 23.071l4.578 4.578c-1.149 35.06-20.562 55.14-26.844 60.74h-48.972l9.812-22.9c6.653-15.47 10.075-32.135 10.055-48.975l-.035-25.57c-1.387-14.707 3.796-29.274 14.16-39.8 9.187-9.372 22.828-14.755 37.422-14.755zm-159.207 24c.015-13.249 10.751-23.985 24-24h78.6c-1.343 1.148-2.67 2.312-3.9 3.57-13.534 13.662-20.373 32.585-18.7 51.742v24.813c.018 14.672-2.963 29.193-8.758 42.672l-12.654 29.529c-24.241 2.775-42.554 23.275-42.588 47.674v24h-16zm131.508 328h-15.531c.375-.555.73-1.125 1.07-1.711 2.476-4.363 3.828-9.273 3.932-14.289h18.537c3.443 0 6.5-2.203 7.589-5.469 2.748-8.255 1.822-17.293-2.543-24.82-.339-.586-.7-1.156-1.07-1.711h15.531c13.255.001 24.001-10.743 24.002-23.998 0-1.963-.24-3.918-.716-5.822l-8-32.008c-2.666-10.687-12.271-18.183-23.286-18.172h-55.023c.01-8.832 7.168-15.99 16-16h63.039c18.195.021 32.94 14.766 32.961 32.961v22.078c.022 8.746-3.455 17.137-9.656 23.305-9.214 9.16-14.379 21.625-14.344 34.617v46.078c-.021 18.195-14.766 32.94-32.961 32.961h-.791l4.545-18.18c3.214-12.859-4.604-25.889-17.464-29.104-1.903-.476-3.859-.716-5.821-.716z"/></svg>