<svg fill="#25c24f" id="Capa_1" enable-background="new 0 0 480 480" height="64" viewBox="0 0 480 480" width="64" xmlns="http://www.w3.org/2000/svg"><path d="m458.078 272c-9.457-.004-17.86 6.035-20.871 15l-4.2 12.68-44.035 44.035-67.594-5.643-43.437-135.705c-9.591-30.005-37.479-50.368-68.98-50.367-4.576.05-9.137.541-13.619 1.468l-30.942-92.019c-1.096-3.256-4.148-5.45-7.584-5.449h-52.816c-4.418-.001-8.001 3.58-8.002 7.998 0 .894.149 1.782.443 2.627l42.786 123.213-51.365 46.711-74.206-74.205c-3.125-3.124-8.19-3.123-11.314.002-1.499 1.5-2.342 3.533-2.342 5.654v72c0 2.122.844 4.156 2.344 5.656l35.965 35.966-35.688 32.456 10.758 11.844 36.256-32.974 61.989 61.988-43.417 53.064h-60.207v16h432c3.571 0 6.709-2.367 7.691-5.8l32-112c.204-.715.308-1.456.309-2.2v-10.078c-.015-12.101-9.821-21.907-21.922-21.922zm-307.012-200 55.934 166.331-23.866 29.163-67.888-195.494zm-6.13 134.276 11.356 32.7-22.536-22.536zm-23.031 20.945 46.423 46.42 2.915 8.395-17.043 20.855-55.012-55.012zm90.948 29.259 23.718 74.552-79.3-6.618zm-196.853-19.792v-49.376l60.014 60.018-25.856 23.515zm45.5 45.492 25.858-23.512 56.666 56.67-22.216 27.154zm83.476 57.264 96.846 8.081 19.237 60.475h-172.18zm132.876 68.556-54.231-170.426c-.006-.018-.018-.032-.024-.051s-.007-.05-.015-.074l-23.107-68.716c27.396-4.261 53.81 12.082 62.224 38.5l49.688 155.215c.594 1.844 1.838 3.41 3.5 4.406l40 24c1.242.747 2.664 1.143 4.113 1.146h16c4.416.006 7.994 3.584 8 8 .007 2.155-.878 4.216-2.445 5.695-1.461 1.492-3.467 2.325-5.555 2.305zm186.148-105.121-30.035 105.121h-35.423c4.529-12.339-1.802-26.014-14.142-30.543-2.69-.987-5.535-1.481-8.4-1.457h-13.785l-35.524-21.312-.036-.115 64.681 5.4c2.345.198 4.659-.65 6.32-2.317l48-48c.883-.88 1.547-1.956 1.938-3.14l4.785-14.438c.828-2.442 3.122-4.083 5.7-4.078 3.269.004 5.918 2.653 5.921 5.922z"/></svg>