<svg fill="#25c24f" id="Capa_1"  enable-background="new 0 0 480.005 480.005" height="64" viewBox="0 0 480.005 480.005" width="64" xmlns="http://www.w3.org/2000/svg"><path d="m479.946 239.995c-.003-132.549-107.457-239.998-240.005-239.995-63.65.001-124.693 25.287-169.701 70.295-93.68 93.828-93.56 245.835.268 339.516 61.043 60.947 150.091 84.46 233.265 61.593 2.935 2.103 6.104 3.856 9.444 5.226 5.39 2.22 11.162 3.366 16.991 3.375 5.922-.003 11.783-1.201 17.231-3.521 9.955-4.227 18.699-10.87 25.439-19.328 8.165 14.013 23.107 22.691 39.325 22.839 1.124 0 2.259-.043 3.394-.13 11.802-.898 22.741-6.521 30.341-15.594 8.177-9.691 12.098-22.27 10.876-34.891-1.022-11.634-4.874-22.841-11.219-32.646 16.707-4.146 29.601-17.435 33.241-34.26 3.367-15.588-1.22-31.832-12.244-43.356 8.874-25.435 13.389-52.185 13.354-79.123zm-398.392 158.392c-87.477-87.477-87.477-229.307 0-316.784s229.307-87.477 316.784 0c59.527 59.605 80.649 147.531 54.691 227.671-2.688-1.281-5.495-2.294-8.382-3.023-4.991-1.259-10.111-1.93-15.258-2 7.022-20.694 10.588-42.403 10.557-64.256 0-110.28-89.72-200-200-200s-200 89.72-200 200 89.72 200 200 200c14.849.003 29.652-1.64 44.138-4.9.276 5.466 1.489 10.844 3.585 15.9 1.019 2.451 2.236 4.815 3.64 7.068-16.836 3.945-34.071 5.936-51.363 5.932-59.44.162-116.476-23.462-158.392-65.608zm236.677-88.744c-15.638-6.47-33.596-3.452-46.26 7.774l-.55.488c-18.587 16.466-20.687 45.4-4.682 64.492l1.841 2.2c6.871 8.255 15.665 14.695 25.609 18.753-3.5 4.397-6.167 9.396-7.871 14.752-15.145 3.922-30.727 5.902-46.372 5.893-101.458 0-184-82.542-184-184s82.542-184 184-184 184 82.542 184 184c.037 22.263-3.989 44.346-11.88 65.164.676-16.969-7.73-33.015-22.066-42.12-20.651-13.272-48.152-7.29-61.424 13.361-.392.61-.769 1.229-1.13 1.857-5.557 9.566-8.719 20.334-9.215 31.386zm32.437 63.025 4.81 3.038-4.5 3.99c-20.072 17.941-50.887 16.213-68.828-3.859-.445-.498-.88-1.005-1.304-1.521l-1.84-2.2c-10.486-12.614-9.147-31.255 3.033-42.242l.551-.488c10.699-9.496 26.814-9.479 37.492.041 4.143 17.861 15.124 33.386 30.586 43.241zm-9.477 89.087c-6.999 2.965-14.898 2.989-21.915.066-7.658-3.158-13.724-9.264-16.83-16.943-5.6-13.513-1.337-29.047 10.125-37.072.4.037.793.089 1.193.119 1.625.121 3.245.181 4.858.18 15.853-.007 31.148-5.857 42.959-16.432l4.083-3.618 2.051 4.948c11.179 26.964-.722 57.806-26.524 68.752zm23.277-104.966-1.093 4.981-4.16-2.629c-24.332-15.374-32.381-48.045-17.943-72.831 7.802-13.641 25.184-18.374 38.825-10.572.46.263.913.539 1.357.827 12.428 8.088 17.687 23.645 12.714 37.614-15.258 9.599-25.973 24.973-29.7 42.61zm69.262 97.141c-4.844 5.798-11.822 9.397-19.355 9.982-14.232 1.1-27.361-8.679-31.229-23.23l-.035-.13-.188-.661c6.788-17.048 6.637-36.076-.423-53.013l-2.124-5.126 4.984-.382c28-2.162 52.9 20.027 55.517 49.428.83 8.358-1.747 16.698-7.147 23.132zm29.478-94.885c-3.215 14.641-16.085 24.128-30.452 22.849-13.327-11.815-30.856-17.756-48.62-16.477l-5.269.4 1.229-5.6c2.84-13.551 11.095-25.352 22.85-32.667 11.279-7.006 24.932-9.096 37.79-5.784 16.016 4.038 26.097 20.76 22.472 37.279z"/><path d="m346.289 122.338-82.343 82.344v-108.687c0-13.255-10.745-24-24-24s-24 10.745-24 24v137.568l-36.787 63.717c-6.595 11.498-2.621 26.165 8.877 32.76 11.452 6.569 26.059 2.655 32.692-8.76l40-69.282h-.01c2.118-3.645 3.232-7.787 3.228-12.003v-12.686l93.657-93.657zm-106.343-34.343c4.416.005 7.995 3.584 8 8v121.376c-5.176-1.835-10.824-1.835-16 0v-121.376c.005-4.416 3.584-7.995 8-8zm-33.075 225.285c-2.234 3.812-7.136 5.09-10.947 2.856-3.776-2.214-5.072-7.051-2.909-10.856l28.7-49.705c3.564 4.176 8.452 7.004 13.849 8.012zm33.075-65.285c-4.418 0-8-3.582-8-8s3.582-8 8-8 8 3.582 8 8c-.005 4.416-3.583 7.995-8 8z"/><path d="m231.946 359.995h16v48h-16z"/><path d="m155.946 92.358h16v32h-16z" transform="matrix(.866 -.5 .5 .866 -32.215 96.49)"/><path d="m100.312 147.995h15.999v32h-15.999z" transform="matrix(.5 -.866 .866 .5 -87.868 175.798)"/><path d="m355.582 155.994h32v15.999h-32z" transform="matrix(.866 -.5 .5 .866 -32.214 207.762)"/><path d="m92.311 307.994h32v15.999h-32z" transform="matrix(.866 -.5 .5 .866 -143.493 96.5)"/><path d="m299.947 100.359h32v16h-32z" transform="matrix(.5 -.866 .866 .5 64.131 327.798)"/><path d="m147.947 363.631h32v16h-32z" transform="matrix(.5 -.866 .866 .5 -239.869 327.798)"/><path d="m359.946 231.995h48v16h-48z"/><path d="m71.946 231.995h48v16h-48z"/></svg>