<svg fill="#25c24f" id="Capa_1" enable-background="new 0 0 483.447 483.447" height="64" viewBox="0 0 483.447 483.447" width="64" xmlns="http://www.w3.org/2000/svg"><path d="m429.754 57.724h-10.238v-16c-.026-22.081-17.919-39.974-40-40h-272c-22.081.026-39.974 17.919-40 40v16h-10.238c-29.67-.022-53.741 24.013-53.762 53.684-.01 13.773 5.27 27.025 14.75 37.016l49.25 52.015v41.285h-64v16h219.508c3.674-.005 6.877 2.497 7.762 6.062l8 32c1.07 4.287-1.537 8.629-5.824 9.7-.634.158-1.285.238-1.938.238h-51.508c-4.418.001-7.999 3.584-7.998 8.002.001 3.811 2.691 7.093 6.428 7.842l15.195 3.039c6.35 1.286 11.06 6.654 11.508 13.117h-37.821l-37.656-37.656c-1.5-1.5-3.534-2.344-5.656-2.344h-120v16h64v64h-67.516v16h96c2.122 0 4.157-.843 5.657-2.344l37.659-37.656h37.82c-.446 6.466-5.159 11.836-11.512 13.117l-15.191 3.039c-4.332.868-7.14 5.084-6.272 9.416.749 3.736 4.029 6.425 7.839 6.428h51.508c4.418 0 8 3.581 8 8 0 .653-.08 1.304-.238 1.938l-8 32c-.885 3.565-4.088 6.067-7.762 6.062h-195.508v16h67.516v24c0 4.418 3.582 8 8 8h336c4.418 0 8-3.582 8-8v-273.293l49.234-51.988c20.403-21.583 19.445-55.62-2.138-76.022-9.964-9.419-23.15-14.676-36.862-14.697zm-293.754 280c-2.122 0-4.156.844-5.656 2.344l-37.656 37.656h-9.172v-64h36.688l24 24zm267.516-296v16h-96.2l-3.518-11.742c-3.341-10.699-10.36-20.553-19.452-28.258h95.17c13.249.014 23.985 10.751 24 24zm-88 88v-8h74.957l-54 48h-60.957v-16h16c13.249-.015 23.985-10.752 24-24zm-11.578-31.156c-2.71 1.355-4.422 4.126-4.422 7.156v24c-.006 4.416-3.584 7.994-8 8h-24c-4.418 0-8 3.582-8 8v24h-56v-32.3c18.934-1.416 36.156-11.486 46.676-27.292 2.092-3.171 1.666-7.376-1.02-10.062l-7.761-7.762c-2.031-2.049-3.172-4.815-3.176-7.7-.001-1.161.188-2.314.558-3.414 1.463-4.461 5.628-7.475 10.323-7.47h10.4c4.418 0 8-3.582 8-8v-40.636c10.011 6.091 17.8 15.393 20.977 25.574l5.261 17.644c.238.95.649 1.849 1.211 2.652l16.672 23.766zm-153.379 71.156-54-48h86.013l4.944 9.887v38.113zm92.157-152c2.963.048 5.912.406 8.8 1.068v38.932h-2.4c-14.853.003-26.891 12.046-26.888 26.898.001 7.126 2.831 13.96 7.868 19.002l2.809 2.808c-3.602 4.004-7.881 7.342-12.641 9.863-6.126 3.27-12.919 5.092-19.859 5.325l-15.869-31.744c-1.009-2.057-1.886-4.176-2.627-6.344 19.39-11.385 27.001-35.609 17.607-56.038 1.479-1.085 3.012-2.093 4.594-3.02 7.566-4.413 16.167-6.743 24.926-6.75zm-83.2 0c15.464 0 28 12.536 28 28s-12.536 28-28 28-28-12.536-28-28c.018-15.457 12.544-27.982 28-28zm-76 24c.015-13.249 10.751-23.985 24-24h18.085c-9.245 11.123-12.382 26.102-8.379 40h-33.706zm0 175.614 23.089 24.386h-23.089zm119.992 152.386h-15.531c.375-.559.734-1.129 1.074-1.715 2.477-4.361 3.828-9.271 3.93-14.285h18.535c3.444 0 6.502-2.205 7.59-5.473 2.748-8.256 1.822-17.293-2.543-24.82-.34-.582-.695-1.152-1.07-1.707h15.531c13.255.001 24.001-10.744 24.001-23.999 0-1.962-.24-3.918-.716-5.821l-8-32c-2.66-10.692-12.267-18.192-23.285-18.18h-43.508c.009-8.833 7.167-15.991 16-16h63.039c13.324-.039 25.359 7.954 30.492 20.25 1.617 4.043 2.455 8.356 2.469 12.711v22.078c.022 8.746-3.454 17.138-9.656 23.305-5.779 5.712-10.021 12.792-12.332 20.582-.059.187-.106.383-.149.582-1.245 4.376-1.872 8.904-1.863 13.453v46.078c-.021 18.195-14.766 32.94-32.961 32.961h-7.039c-1.766-.037-3.465-.681-4.812-1.824l4.089-16.356c3.214-12.859-4.604-25.889-17.464-29.104-1.903-.476-3.859-.717-5.821-.716zm-119.992 80h56.982l-6.4 16h-50.582zm320 16h-50.582l-29.195-72.988 7.49-52.53c19.632-9.153 32.211-28.821 32.287-50.482-.015-8.392-1.944-16.671-5.639-24.206l45.639-48.194zm-57.713-187.457c4.5 14.767-.029 30.803-11.59 41.034l4.862-33.929zm111.346-140.843-131.445 138.8c-1.135 1.201-1.871 2.723-2.106 4.359l-7.6 53.039c-.019.125-.035.262-.046.4l-8.352 58.57c-.199 1.386-.031 2.8.488 4.1l27.612 69.032h-184.368l6.4-16h37.773c10.833.004 20.319-7.266 23.131-17.727 2.823 1.137 5.837 1.723 8.88 1.727h7.039c27.027-.031 48.93-21.934 48.961-48.961v-46.078c-.009-3.182.445-6.349 1.348-9.4.05-.168.093-.343.132-.527 1.592-5.062 4.399-9.656 8.176-13.383 9.212-9.159 14.377-21.622 14.344-34.612v-22.078c-.023-6.426-1.262-12.789-3.652-18.754-7.588-18.319-25.481-30.247-45.309-30.207h-63.039c-17.665.02-31.98 14.335-32 32h-34.879l-98.769-104.32c-6.666-6.98-10.375-16.267-10.352-25.918.024-20.846 16.917-37.738 37.762-37.762h68.323c9.962 12.22 25.76 18.087 41.284 15.332.944 2.707 2.051 5.353 3.315 7.926l4.371 8.742h-99.055c-4.418-.001-8.001 3.58-8.002 7.998-.001 2.286.977 4.463 2.686 5.982l72 64c1.465 1.302 3.356 2.02 5.316 2.02h192c1.96 0 3.851-.718 5.316-2.02l72-64c3.303-2.935 3.601-7.991.666-11.294-1.519-1.709-3.696-2.686-5.982-2.686h-86.109l1.687-.844c3.953-1.98 5.553-6.79 3.573-10.744-.175-.35-.376-.686-.6-1.006l-13.615-19.406h113.3c20.834-.022 37.741 16.851 37.763 37.685.01 9.681-3.702 18.995-10.368 26.015z"/></svg>